
Track List:

Let Me Entertain You
Let Love Be Your Energy
We Will Rock You
Monsoon
Come Undone
Strong
Me and My Monkey
Hot Fuge
Mr Bojangles
She's The One
Superme
No Regrets
Kids
Better Man
Man's Song
Feel
Rock DJ
Angels


Total time: 1.55:13


Format                           : AVC
Format/Info                      : Advanced Video Codec
Format profile                   : High@L3.0
Format settings, CABAC           : Yes
Format settings, ReFrames        : 4 frames
Muxing mode                      : Container profile=Unknown@3.0
Codec ID                         : V_MPEG4/ISO/AVC
Duration                         : 1h 55mn
Bit rate                         : 2 500 Kbps
Width                            : 720 pixels
Height                           : 576 pixels
Display aspect ratio             : 16:9
Frame rate mode                  : Variable
Frame rate                       : 25.000 fps
Standard                         : PAL
Color space                      : YUV
Chroma subsampling               : 4:2:0
Bit depth                        : 8 bits
Scan type                        : Progressive
Bits/(Pixel*Frame)               : 0.241
Stream size                      : 1.97 GiB (83%)
Writing library                  : x264 core 93 r1542 5b86182
                        

Audio
ID                               : 2
Format                           : AC-3
Format/Info                      : Audio Coding 3
Mode extension                   : CM (complete main)
Codec ID                         : A_AC3
Duration                         : 1h 55mn
Bit rate mode                    : Constant
Bit rate                         : 448 Kbps
Channel(s)                       : 6 channels
Channel positions                : Front: L C R, Side: L R, LFE
Sampling rate                    : 48.0 KHz
Bit depth                        : 16 bits
Video delay                      : -40ms
Stream size                      : 369 MiB (15%)
Language                         : English
